<?xml version="1.0" standalone="no"?>
<!DOCTYPE svg PUBLIC "-//W3C//DTD SVG 1.1//EN" "http://www.w3.org/Graphics/SVG/1.1/DTD/svg11.dtd" >
<svg xmlns="http://www.w3.org/2000/svg">
<metadata>
Created by FontForge 20120731 at Tue Aug  2 11:20:56 2016
 By admin
</metadata>
<defs>
<font id="iconfont" horiz-adv-x="1024" >
  <font-face 
    font-family="iconfont"
    font-weight="500"
    font-stretch="normal"
    units-per-em="1024"
    panose-1="2 0 6 3 0 0 0 0 0 0"
    ascent="896"
    descent="-128"
    x-height="792"
    bbox="-0.363636 -128 1024.65 896"
    underline-thickness="50"
    underline-position="-100"
    unicode-range="U+0078-E611"
  />
<missing-glyph horiz-adv-x="374" 
d="M34 0v682h272v-682h-272zM68 34h204v614h-204v-614z" />
    <glyph glyph-name=".notdef" horiz-adv-x="374" 
d="M34 0v682h272v-682h-272zM68 34h204v614h-204v-614z" />
    <glyph glyph-name=".null" horiz-adv-x="0" 
 />
    <glyph glyph-name="nonmarkingreturn" horiz-adv-x="341" 
 />
    <glyph glyph-name="x" unicode="x" horiz-adv-x="1001" 
d="M281 543q-27 -1 -53 -1h-83q-18 0 -36.5 -6t-32.5 -18.5t-23 -32t-9 -45.5v-76h912v41q0 16 -0.5 30t-0.5 18q0 13 -5 29t-17 29.5t-31.5 22.5t-49.5 9h-133v-97h-438v97zM955 310v-52q0 -23 0.5 -52t0.5 -58t-10.5 -47.5t-26 -30t-33 -16t-31.5 -4.5q-14 -1 -29.5 -0.5
t-29.5 0.5h-32l-45 128h-439l-44 -128h-29h-34q-20 0 -45 1q-25 0 -41 9.5t-25.5 23t-13.5 29.5t-4 30v167h911zM163 247q-12 0 -21 -8.5t-9 -21.5t9 -21.5t21 -8.5q13 0 22 8.5t9 21.5t-9 21.5t-22 8.5zM316 123q-8 -26 -14 -48q-5 -19 -10.5 -37t-7.5 -25t-3 -15t1 -14.5
t9.5 -10.5t21.5 -4h37h67h81h80h64h36q23 0 34 12t2 38q-5 13 -9.5 30.5t-9.5 34.5q-5 19 -11 39h-368zM336 498v228q0 11 2.5 23t10 21.5t20.5 15.5t34 6h188q31 0 51.5 -14.5t20.5 -52.5v-227h-327z" />
    <glyph glyph-name="uniE600" unicode="&#xe600;" 
d="M644 -21q-25 0 -41 18q-16 17 -42.5 35t-48.5 18q-23 0 -49.5 -18t-41.5 -34q-16 -18 -41 -18q-11 0 -21 5h-1l-107 60l-1 1q-14 10 -19 27.5t2 33.5q10 23 10 43q0 47 -33 80t-80 33h-4q-14 0 -24 11t-13 30q-10 48 -10 85t10 85q3 19 13.5 30t23.5 10h4q47 0 80 33.5
t33 79.5q0 21 -10 44q-7 16 -2 33.5t19 27.5l2 1l112 62h1q10 4 21 4q25 0 41 -16q15 -17 41 -34t48 -17t47.5 17t41.5 33t40 16q12 0 21 -4l2 -1l108 -60l1 -1q15 -10 20 -27.5t-2 -33.5q-10 -23 -10 -44q0 -46 33 -79.5t80 -33.5h3q14 1 24.5 -10t13.5 -30q9 -48 9 -85
t-9 -85q-3 -19 -13.5 -30t-24.5 -11h-3q-47 0 -80 -33t-33 -80q0 -20 10 -43q7 -16 2 -33.5t-20 -27.5l-1 -1l-110 -61l-1 -1q-10 -4 -21 -4zM641 31q1 -1 3 -1l103 57q-13 33 -13 63q0 66 45 113.5t110 50.5q8 45 8 75t-8 75q-65 3 -110 50.5t-45 112.5q0 31 13 64l-101 56
h-1q-2 0 -3 -1q-16 -16 -38 -32q-47 -33 -88 -33t-89 34q-22 16 -37 32q-2 1 -4 1h-1l-105 -57q14 -33 14 -64q0 -65 -45 -112.5t-110 -50.5q-8 -45 -8 -75t8 -75q65 -3 110 -50.5t45 -113.5q0 -30 -14 -63l100 -55h3q16 18 38 34q49 35 91 35t90 -36q23 -16 39 -34z
M512 239q-62 0 -106 44t-44 106.5t44 106.5t106 44t106 -44t44 -106.5t-44 -106.5t-106 -44zM512 489q-41 0 -70 -29t-29 -70.5t29 -70.5t70 -29t70 29t29 70.5t-29 70.5t-70 29z" />
    <glyph glyph-name="uniE601" unicode="&#xe601;" 
d="M823 686q-10 10 -24.5 10t-24.5 -10t-10 -24t10 -25q53 -53 81 -122t28 -139.5t-28 -139.5t-81 -123q-71 -71 -166.5 -96t-191 0t-166.5 96q-53 54 -81 123t-28 139.5t28 139.5t81 122q10 11 10 25t-10 24t-24.5 10t-24.5 -10q-62 -62 -95.5 -142t-33.5 -168.5
t33.5 -168.5t95.5 -142q63 -63 144 -96t167 -33t167 33t144 96q62 62 95.5 142t33.5 168.5t-33.5 168.5t-95.5 142zM512 220q14 0 24 10t10 25v542q0 15 -10 25t-24 10t-24 -10t-10 -25v-542q0 -15 10 -25t24 -10z" />
    <glyph glyph-name="uniE602" unicode="&#xe602;" 
d="M658 58q-11 -52 -52 -85.5t-94.5 -33.5t-94.5 33.5t-51 85.5h-271l119 238v238q0 123 87 210.5t210.5 87.5t210.5 -87.5t87 -210.5v-238l119 -238h-270zM511.5 -2q28.5 0 51.5 17t33 43h-168q9 -26 32 -43t51.5 -17zM750 296v238q0 99 -70 168.5t-168.5 69.5t-168 -69.5
t-69.5 -168.5v-238l-90 -179h655z" />
    <glyph glyph-name="uniE603" unicode="&#xe603;" 
d="M64 832v-704h896v704h-896zM895 192h-767v419l384 -291v0l383 290v-418zM512 409l-384 291v68h767v-68z" />
    <glyph glyph-name="uniE604" unicode="&#xe604;" 
d="M467 384l-450 450l45 45l450 -450l450 450l45 -45l-450 -450l450 -450l-45 -45l-450 450l-450 -450l-45 45z" />
    <glyph glyph-name="uniE605" unicode="&#xe605;" 
d="M255 41v357h39v44h-200v-40h39v-361h122zM32 481h967q18 8 17.5 22t-16.5 25q-10 6 -131 93.5t-237 171.5l-117 84q-460 -335 -483 -349q-18 -11 -18.5 -25t18.5 -22zM515 712q29 0 49.5 -20.5t20.5 -49.5t-20.5 -49.5t-49.5 -20.5t-49.5 20.5t-20.5 49.5t20.5 49.5
t49.5 20.5zM56 -38h919v39h-919v-39zM16 -118h999v36h-999v-36zM576 41v359h39v39h-199v-37h39v-361h121zM895 41v359h39v39h-199v-37h39v-361h121z" />
    <glyph glyph-name="uniE606" unicode="&#xe606;" 
d="M514 242v-208q0 -6 4 -10t10 -4h105q6 0 10.5 4t4.5 10v277l-107 -92zM65 34q0 -6 4 -10t10 -4h105q6 0 10 4t4 10v212l-133 -110v-102zM289 321v-287q0 -6 4.5 -10t9.5 -4h106q6 0 10 4t4 10v285l-67 57zM738 34q0 -6 4.5 -10t10.5 -4h105q6 0 10 4t4 10v471l-134 -116
v-355zM715 748q-3 0 -4 -3t1 -5l101 -99l-272 -234l-185 157l-292 -241v-104l292 241l185 -157l328 283l83 -82q2 -2 5 -1t3 4v236q0 2 -1.5 3.5t-3.5 1.5h-240z" />
    <glyph glyph-name="uniE607" unicode="&#xe607;" 
d="M202 -66h616v626h-616v-626zM337 602v117q0 20 14 34t34 14h250q20 0 34 -14t14 -34v-117h68v117q0 47 -34 81t-82 34h-250q-48 0 -82 -34t-34 -81v-117h68zM91 560h63v-626h-63q-34 0 -58 24t-24 58v462q0 34 24 58t58 24zM929 560h-63v-626h63q34 0 58 24t24 58v462
q0 34 -24 58t-58 24zM333 63v191l-21 15l51 162l34 -25l-45 -142h26v-201h-45zM470 319h185v66h-185v-66zM612 196h-28v-133h-43v133h-28l-62 -133l-38 13l55 120h-53v40h126v46h-114v142h272v-142h-115v-46h124v-40h-53l53 -119l-37 -14z" />
    <glyph glyph-name="uniE608" unicode="&#xe608;" horiz-adv-x="1025" 
d="M220 409q11 1 23.5 2.5t19.5 2.5t8 1q125 29 223 18q4 -1 13.5 -1.5t17 -1t7.5 -1.5v2q0 22 -5 54t-9.5 53.5t-15.5 66.5t-14 56q-6 31 -18 62t-19 44.5t-12 20.5q-12 15 -32 27.5t-34 16.5l-14 4q-37 8 -76.5 -1.5t-60.5 -22.5l-21 -14q-26 -16 -42 -38.5t-20 -43.5
t-3.5 -40t3 -30.5t3.5 -11.5h-15q-119 0 -127 -92q-2 -31 7 -58q12 -32 38 -53.5t48 -27.5q12 -2 24.5 -3t29 0t25 2t27.5 3.5t21 3.5zM532 431v-2q6 1 23.5 6.5t22.5 6.5t19.5 5t21 5.5t20.5 5t25 5t26.5 4t32.5 4.5t37 4q80 10 122 36q15 10 28.5 25t18.5 25l6 9
q18 40 14 75.5t-12.5 56.5t-12.5 24q-19 28 -41.5 42.5t-43 14.5t-31 -2t-20.5 -6q-1 -1 -2 -1q-1 -2 -24 -12q0 37 -2 43q-8 30 -27 48t-41.5 22t-39.5 3t-29 -4q-58 -18 -82 -62q-3 -6 -5 -11t-3.5 -11t-2.5 -9.5t-2 -9.5t-1.5 -8.5t-1 -9.5t-1 -9t-1 -10.5t-0.5 -10.5
v-43v-46q0 -14 0.5 -42t1.5 -46t2.5 -42.5t4.5 -46.5v-26zM516 413q-3 -1 -21 -1t-23 -1q-142 -6 -255 -64q-42 -19 -81 -62q-1 -2 -7.5 -11t-9.5 -14t-9 -15.5t-8.5 -19t-4.5 -20.5t-1 -24q-2 -9 -2.5 -23.5t4.5 -37.5t17 -42t39 -34.5t66 -18.5q42 0 42 3q0 -5 4 -18
q0 -4 3.5 -15.5t11 -28.5t25 -35t40.5 -29q16 -13 50.5 -14.5t77 16t67.5 55.5q7 2 18 29t13 55q2 2 -0.5 47t-10.5 95q-6 23 -17 64t-16 60t-8.5 48t-3.5 56zM959 407q-20 13 -64 24q-71 14 -133 9q-54 -4 -123.5 -13.5t-102.5 -11.5q3 -4 4.5 -16.5t2.5 -14.5
q33 -128 82 -252q29 -65 40 -80q15 -12 23.5 -17.5t29.5 -12t44 -5.5q12 0 31.5 4.5t43 15.5t39 34t12.5 54q0 2 -4 15.5t-7 25t-4 11.5h2q1 0 13.5 -2t15.5 -2h2q11 0 21 1t30 7t36.5 24t25.5 47q12 22 -1.5 75t-58.5 80z" />
    <glyph glyph-name="uniE609" unicode="&#xe609;" 
d="M605 495l234 -105l161 94l-443 248l-505 -273l458 -263l317 187l-251 43q-38 8 -41 34q-2 24 25 34q20 8 45 1zM508 113l-314 186l-62 -61l375 -215l289 183l-56 53zM907 406h-31v-41h-31v-263h31v-26h31v26h26v263h-26v41z" />
    <glyph glyph-name="uniE60A" unicode="&#xe60a;" 
d="M310 783q21 -13 28 -24q10 -6 24 -27q1 -3 6 -10t7 -10q7 -7 14 -21q2 -3 7 -11.5t7 -12.5h228q1 2 6.5 10t7.5 14q7 14 13.5 21t10.5 13q13 21 20 28q6 8 31 27q14 7 17 14q7 13 7 17q0 10 -4 17q-4 9 -13 13q-7 4 -17 4q-2 0 -7 -2t-7 -2q-7 0 -14 -6q-3 -4 -16.5 -4
t-17.5 4q-1 1 -6.5 4.5t-6.5 5.5q-7 7 -14 10q-3 3 -17 10q-21 11 -34 4q-4 -1 -28 -17q-13 -14 -17 -14q-1 0 -3 -1.5t-3 -1.5l-14 6q-2 2 -5.5 4t-4.5 3l-11 10q-3 4 -23 11q-14 4 -31 -7q-14 -7 -27 -21q-11 -10 -24 -10h-21q-2 2 -8 4l-9 3q-7 3 -20.5 3t-16.5 -3
q-16 -10 -11 -31q4 -10 17 -24zM901 265q-12 64 -27 95q-18 36 -48 72q-8 9 -17.5 18.5t-20.5 20t-17 15.5q-41 35 -54 52l-15 14l-15 16l-11 11q-8 7 -19 19.5t-16 17.5h-245q-3 -6 -8.5 -13t-12.5 -15t-10 -13q-10 -14 -38 -41q-6 -6 -24 -22.5t-27 -25.5
q-41 -41 -61.5 -64.5t-47.5 -78.5q-18 -37 -24 -92q-6 -57 4 -103q13 -58 37 -95q29 -52 75 -89q52 -41 113 -65q62 -24 153 -24q84 0 151 21q63 19 112 58q53 41 75 85q25 37 38 103q6 86 0 123zM624 128q31 0 31 -24q0 -14 -7 -17q-3 -3 -17 -3h-75v-21q0 -7 -7 -20
q-11 -12 -20 -7q-14 0 -21 7q-10 5 -10 20v21h-78q-11 0 -17.5 6.5t-6.5 13.5q0 4 7 17q6 7 17 7h75v38h-75q-11 0 -17.5 6.5t-6.5 13.5q0 3 7 17q6 7 17 7h75v24l-38 37q-3 4 -8.5 10t-10 10.5t-8.5 7.5l-14 17q-3 3 -10 17q-4 8 3 24q11 11 24 7q16 -6 24 -14q1 -1 5.5 -7
t8.5 -10l24 -24l30 -31q14 10 35 31q5 3 13.5 11.5t13.5 12.5q4 3 7.5 6.5t6 6.5t3.5 4q10 10 20.5 10t20.5 -10q16 -16 -10 -38l-21 -20l-27 -27l-34 -35v-17h71q11 0 24 -6q7 -4 7 -18q0 -10 -7 -16.5t-20 -6.5h-72v-38h68z" />
    <glyph glyph-name="uniE60B" unicode="&#xe60b;" 
d="M345 462q-4 5 -10.5 15.5t-20 42.5t-19.5 64.5t-2 77t25 84.5q21 41 61 62.5t82.5 22.5t82.5 -7.5t67.5 -26t30.5 -35.5h7q4 0 16 -3t22.5 -7.5t21.5 -16t17 -26.5q22 -54 1.5 -117.5t-63.5 -115.5q7 15 8.5 30.5t-2 31.5t-8.5 29t-13 30l-12 -46q1 5 1.5 13.5t-3.5 28
t-16 31.5q-1 -1 -7 -5.5t-9 -7t-10.5 -7.5t-14 -8t-16.5 -7t-21 -7q29 21 30 34q-52 -26 -91 -39t-88 -18q51 17 71 36q-71 0 -97.5 -34t-20.5 -99zM258 304h102l88 -279l13 -4l25 161l-19 40l33 28h25l33 -28l-20 -40l25 -161l13 4l88 279h103q59 0 101.5 -40t42.5 -96
v-143q0 -36 -27 -61.5t-65 -25.5h-613q-38 0 -65 25.5t-27 61.5v143q0 56 42 96t102 40z" />
    <glyph glyph-name="uniE60C" unicode="&#xe60c;" 
d="M956 584q0 -3 -0.5 -6.5t-2.5 -7.5q2 -6 2.5 -12t0.5 -12q0 -23 -7 -44t-19 -38v-456q0 -22 -15 -37t-38 -15h-734q-21 0 -36.5 15t-15.5 37v456q-26 33 -26 82v12q0 6 1 12q-1 9 -1 14v185q0 22 15 37t37 15h787q21 0 36.5 -15t15.5 -37v-185zM851 408q-10 -4 -21 -5
t-22 -1q-30 0 -55.5 10t-45.5 27.5t-32 41t-15 51.5h-2q-3 -28 -15.5 -51.5t-32 -41t-45 -27.5t-55 -10t-55.5 10t-45.5 27.5t-32 41t-15.5 51.5h-1q-2 -28 -14.5 -51.5t-32.5 -41t-46 -27.5t-55 -10q-25 0 -44 6v-321q0 -22 15.5 -37.5t36.5 -15.5h577q22 0 37.5 15.5
t15.5 37.5v321z" />
    <glyph glyph-name="uniE60D" unicode="&#xe60d;" 
d="M640 11v125l-259 -1v-126l-55 -28q0 -2 -0.5 -3.5t-1 -6.5t1 -9t6.5 -7t14 -3h323q1 0 2.5 0.5t6.5 2.5t8.5 4t7.5 5t3.5 5.5t-2.5 6.5q-5 5 -19 14t-25 15zM870 823h-718q-36 0 -61.5 -25.5t-25.5 -60.5v-496q0 -36 25.5 -61t61.5 -25h718q36 0 62.5 25.5t26.5 60.5v496
q0 35 -26.5 60.5t-62.5 25.5zM901 362q0 -24 -16.5 -41t-40.5 -17h-666q-24 0 -41 17t-17 41v348q0 24 17 41t41 17h666q24 0 40.5 -17t16.5 -41v-348zM637 519q-3 2 -7 6t-18 14t-29 17.5t-37.5 14t-44.5 6.5q-34 0 -72 -14.5t-60 -29.5l-21 -14l-42 18v-53q11 -4 11 -16
t-11 -16l12 -56h-37l13 57q-11 4 -11 15t10 16v58l-62 26l273 122l251 -124zM498 547q35 0 66 -10t44 -21l13 -10v-102q-5 -3 -15 -8.5t-43.5 -14.5t-70.5 -9t-66 8t-39 16l-9 8v102q4 4 13 11t40.5 18.5t66.5 11.5zM496 390q27 0 50 3.5t36.5 9t13.5 12.5q0 10 -29 17.5
t-70.5 7.5t-70.5 -7.5t-29 -17.5t29 -17.5t70 -7.5z" />
    <glyph glyph-name="uniE60E" unicode="&#xe60e;" 
d="M513 551l-3 1l-245 -41v-218h248v258zM513 -16q24 6 52 17t55 26.5t52.5 34t44.5 40t31 44.5t12 47v100h-247v-309zM512 896zM822 200q0 -31 -15.5 -61.5t-40.5 -59.5t-57.5 -54.5t-65.5 -45.5t-64 -33.5t-55 -18.5l-7 -1l-7 1q-24 5 -56 18.5t-66.5 33.5t-67.5 45.5
t-59 54.5t-42 59.5t-16 61.5v344l25 4l285 53l290 -53l19 -4v-344zM822 200z" />
    <glyph glyph-name="uniE60F" unicode="&#xe60f;" 
d="M484 588h191v-85h-191v85zM881 769h-26q-62 0 -118 11t-90.5 24.5t-62.5 30.5t-37.5 25t-12.5 12l-22 24l-22 -24q-5 -5 -13.5 -12.5t-39.5 -26t-67.5 -32.5t-97.5 -24t-129 -8l-31 1v-462q0 -42 6.5 -78.5t30 -86t64 -92t114.5 -89.5t174 -86l11 -4l11 4q100 39 174 86
t114.5 89.5t64 92t30 86t6.5 78.5v462zM785 216q-16 -22 -26 -38l-6 -10l-9 6q-83 50 -135 130v-173h-61v176q-59 -92 -142 -143l-8 -6l-6 8q-12 15 -29 31l-2 2v-65h-60v261q-13 -22 -27 -42l-13 -19l-7 22q-7 21 -16 42l-2 6l3 5q69 103 108 251l3 12l61 -19l-4 -10
q-21 -69 -46 -129v-301l4 2q83 45 137 123h-128v58h174v49h-64v-24h-62v225h316v-221h-63v20h-66v-49h174v-58h-134q47 -65 131 -105l13 -6z" />
    <glyph glyph-name="uniE610" unicode="&#xe610;" 
d="M693 549q15 0 35 -2q-23 109 -127.5 181.5t-238.5 72.5q-98 0 -181 -40.5t-132 -111.5t-49 -156q0 -143 145 -245l-36 -109l127 64q6 -2 25 -5.5t27 -5t22.5 -4t26.5 -3t25 -0.5q16 0 34 1q-11 38 -11 76q0 119 89.5 203t218.5 84zM498 647q21 0 33.5 -12.5t12.5 -33
t-12.5 -33t-33.5 -12.5t-37.5 13t-16.5 32.5t16.5 32.5t37.5 13zM245 556q-22 0 -38.5 13t-16.5 32.5t16.5 32.5t38.5 13q20 0 32.5 -12.5t12.5 -33t-12.5 -33t-32.5 -12.5zM1024 266q0 71 -43 132t-113.5 96t-151.5 35q-129 0 -218.5 -77t-89.5 -186t89.5 -186t218.5 -77
q37 0 109 18l99 -54l-27 90q127 96 127 209zM616 312q-13 0 -24.5 11t-11.5 24.5t11.5 25t24.5 11.5q20 0 33 -11t13 -25.5t-13 -25t-33 -10.5zM815 312q-13 0 -24.5 11t-11.5 24.5t11.5 25t24.5 11.5q20 0 33 -11t13 -25.5t-13 -25t-33 -10.5z" />
    <glyph glyph-name="uniE611" unicode="&#xe611;" 
d="M512 -110q-112 0 -206.5 54.5t-149.5 149t-55 206.5t55 206.5t149.5 149.5t206.5 55t206.5 -55t149.5 -149.5t55 -206.5t-55 -206.5t-149.5 -149t-206.5 -54.5zM687 308q-174 100 -281 162q-12 6 -21.5 0t-9.5 -17v-325q0 -12 10 -17.5t20 -0.5q105 59 282 163
q10 6 10 17.5t-10 17.5z" />
  </font>
</defs>
</svg>
